<svg aria-label="Vercel logo" role="img" viewBox="0 0 283 64" fill="none" xmlns="http://www.w3.org/2000/svg">
  <path d="M141.04 16.25c-11.04 0-19 7.22-19 18.65 0 11.47 7.96 18.7 19.06 18.7 6.58 0 12.21-2.87 15.5-7.85l-7.91-4.54c-2.03 2.72-4.7 4.03-7.63 4.03-4.31 0-7.37-2.47-8.59-6.5h25.67c.2-1.1.34-2.41.34-4.07-.02-11.08-7.97-18.42-17.44-18.42zm-7.85 15.27c.68-3.97 3.28-6.2 7.36-6.2 4.1 0 6.86 2.24 7.55 6.2h-14.9zM51.5 17.02L34.02 47.13 16.54 17.02H0l34.02 58.9L68.04 17.02H51.5zm71.43 32.77L101.03 17h-16.2v58.9h16.05V41.92l21.9 33.98h.28l21.9-33.98V75.9h16.06V17h-16.06l-21.98 32.8zM202.67 58.9h16.6V17h-16.6v41.9zm8.32-60.7c5.75 0 10.41-4.66 10.41-10.4 0-5.75-4.66-10.41-10.41-10.41-5.74 0-10.4 4.66-10.4 10.41 0 5.74 4.66 10.4 10.4 10.4zm69.37 22.02h-16.21l-9.54 25.62-9.54-25.62h-16.21l17.58 45.67L280.3 20.22z" fill="currentColor" />
</svg>
